<svg xmlns="http://www.w3.org/2000/svg" viewBox="0 0 64 64" fill="none">
  <circle cx="32" cy="32" r="30" fill="#8247E5"/>
  <path d="M42 26.5c-1-0.6-2.2-0.6-3.2 0l-5 2.9-3.4 1.9-5 2.9c-1 0.6-2.2 0.6-3.2 0l-4-2.3c-1-0.6-1.6-1.6-1.6-2.8v-4.5c0-1.1 0.6-2.2 1.6-2.8l4-2.3c1-0.6 2.2-0.6 3.2 0l4 2.3c1 0.6 1.6 1.6 1.6 2.8v2.9l3.4-2v-2.9c0-1.1-0.6-2.2-1.6-2.8l-7.2-4.2c-1-0.6-2.2-0.6-3.2 0l-7.4 4.3c-1 0.6-1.6 1.6-1.6 2.8v8.5c0 1.1 0.6 2.2 1.6 2.8l7.4 4.2c1 0.6 2.2 0.6 3.2 0l5-2.8 3.4-2 5-2.8c1-0.6 2.2-0.6 3.2 0l4 2.3c1 0.6 1.6 1.6 1.6 2.8v4.5c0 1.1-0.6 2.2-1.6 2.8l-4 2.3c-1 0.6-2.2 0.6-3.2 0l-4-2.3c-1-0.6-1.6-1.6-1.6-2.8v-2.8l-3.4 2v2.8c0 1.1 0.6 2.2 1.6 2.8l7.4 4.2c1 0.6 2.2 0.6 3.2 0l7.4-4.2c1-0.6 1.6-1.6 1.6-2.8v-8.5c0-1.1-0.6-2.2-1.6-2.8l-7.6-4.4z" fill="white"/>
</svg>
